<?xml version="1.0" encoding="iso-8859-1"?>
<!-- Generator: Adobe Illustrator 18.0.0, SVG Export Plug-In . SVG Version: 6.00 Build 0)  -->
<!DOCTYPE svg PUBLIC "-//W3C//DTD SVG 1.1//EN" "http://www.w3.org/Graphics/SVG/1.1/DTD/svg11.dtd">
<svg version="1.1" id="Capa_1" xmlns="http://www.w3.org/2000/svg" xmlns:xlink="http://www.w3.org/1999/xlink" x="0px" y="0px"
	 viewBox="0 0 291.657 291.657" style="enable-background:new 0 0 291.657 291.657;" xml:space="preserve">
<g>
	<path d="M287.157,87.567c-2.785-1.609-6.215-1.607-9,0l-51.785,29.897c-0.652,0.376-1.27,0.791-1.863,1.229V87.6
		c0-11.579-9.42-21-21-21H43.987c-0.144,0-0.284,0.015-0.427,0.021c-0.142-0.007-0.283-0.021-0.427-0.021H9c-4.971,0-9,4.029-9,9
		v24.707c0,4.971,4.029,9,9,9h25.987v83.351c0,4.971,4.029,9,9,9H66.55v14.399c0,4.971,4.029,9,9,9h108.397c4.971,0,9-4.029,9-9
		v-14.399h22.562c4.971,0,9-4.029,9-9v-43.094c0.594,0.438,1.211,0.853,1.863,1.229l51.785,29.898
		c1.393,0.804,2.946,1.206,4.5,1.206s3.108-0.402,4.5-1.206c2.785-1.607,4.5-4.578,4.5-7.794V95.361
		C291.657,92.145,289.942,89.174,287.157,87.567z M18,91.307V84.6h16.987v6.707H18z M174.947,207.057H84.55v-5.399h90.397V207.057z
		 M206.509,183.658h-22.562H75.55H52.987V84.6h150.521c1.654,0,3,1.346,3,3V183.658z M273.657,157.309l-38.285-22.104
		c-0.153-0.089-0.621-0.358-0.621-1.076c0-0.717,0.468-0.987,0.621-1.076l38.285-22.104V157.309z"/>
	<path d="M107.146,96.962H72.151c-4.971,0-9,4.029-9,9s4.029,9,9,9h34.994c4.971,0,9-4.029,9-9S112.116,96.962,107.146,96.962z"/>
</g>
<g>
</g>
<g>
</g>
<g>
</g>
<g>
</g>
<g>
</g>
<g>
</g>
<g>
</g>
<g>
</g>
<g>
</g>
<g>
</g>
<g>
</g>
<g>
</g>
<g>
</g>
<g>
</g>
<g>
</g>
</svg>
