<svg
  xmlns="http://www.w3.org/2000/svg"
  x="0px"
  y="0px"
  width="30"
  height="30"
  viewBox="0 0 172 172"
  style="fill: #000000"
>
  <g
    fill="none"
    fill-rule="nonzero"
    stroke="none"
    stroke-width="1"
    stroke-linecap="butt"
    stroke-linejoin="miter"
    stroke-miterlimit="10"
    stroke-dasharray=""
    stroke-dashoffset="0"
    font-family="none"
    font-weight="none"
    font-size="none"
    text-anchor="none"
    style="mix-blend-mode: normal"
  >
    <path d="M0,172v-172h172v172z" fill="none"></path>
    <g fill="" class="path-fill">
      <path
        d="M9.78698,1.67969l-8.10729,8.10729l160.53333,160.53333l8.10729,-8.10729l-64.14167,-64.14167c10.67612,-6.35004 28.44457,-17.28684 38.54323,-25.50886l0.29114,0.29114c1.43802,1.49778 3.5734,2.10113 5.5826,1.57735c2.0092,-0.52378 3.57826,-2.09284 4.10204,-4.10204c0.52378,-2.0092 -0.07957,-4.14458 -1.57735,-5.5826l-45.86667,-45.86667c-1.07942,-1.10959 -2.56163,-1.73559 -4.10964,-1.73568c-2.33303,0.00061 -4.43306,1.41473 -5.31096,3.57628c-0.8779,2.16155 -0.3586,4.6395 1.31331,6.26668l0.29114,0.29115c-8.22201,10.09866 -19.15882,27.86711 -25.50886,38.54323zM45.81068,74.47734c-2.33303,0.00061 -4.43307,1.41473 -5.31097,3.57628c-0.8779,2.16155 -0.3586,4.6395 1.31331,6.26669l45.86667,45.86667c1.43802,1.49778 3.5734,2.10113 5.5826,1.57735c2.0092,-0.52378 3.57826,-2.09284 4.10204,-4.10204c0.52378,-2.0092 -0.07957,-4.14458 -1.57735,-5.5826l-45.86667,-45.86667c-1.07942,-1.10959 -2.56162,-1.73559 -4.10963,-1.73568zM53.27969,110.61302l-28.66667,28.66667c-1.07526,1.07503 -1.67946,2.53316 -1.67969,4.05364c0,3.16643 2.5669,5.73333 5.73333,5.73333c1.52049,-0.00023 2.97861,-0.60443 4.05365,-1.67969l28.66667,-28.66667z"
      ></path>
    </g>
  </g>
</svg>
