<?xml version="1.0" encoding="UTF-8" standalone="no"?>
<svg
  xmlns="http://www.w3.org/2000/svg"
  height="55"
  width="55"
>
  <g stroke="" class="path-stroke path-stroke-default">
    <path
      d="M28 6s-1.255-1-2-1c-1.49 0-2.946.946-4 2-1.581 1.581-1.693 4.186-3 6a13.328 13.328 0 01-3 3c-1.814 1.307-4.419 1.419-6 3-1.054 1.054-2 2.51-2 4 0 1.49 1.177 3.54 2 4 2.595 1.45.837.649 2 2 0 0-1.04 3.3-1 5 .065 2.748 2 7 2 8s3.622 4.469 6 6c2.395 1.542 5.324 2.06 8.165 2.258 3.065.216 5.976-.356 8.67-1.835C37.488 47.516 38.855 46.5 40 45c1.631-2.136 3.31-4.403 4-7 .428-1.61.204-3.346 0-5-.168-1.364-1.272-2.653-1-4 .33-1.634 2.32-2.478 3-4 .694-1.552 1.688-3.446 1-5-.786-1.777-3.358-1.96-5-3-1.016-.643-2.106-1.197-3-2-1.936-1.74-3.442-3.914-5-6-.72-.963-1.045-2.27-2-3-.838-.64-1.974-1.242-3-1-.459.108-1 1-1 1"
      fill=""
      class="path-fill path-fill-default"
    />
    <path
      d="M43.021 28.282s1.464 5.74 1.001 8.584c-.503 3.094-1.733 6.32-4.004 8.584-2.062 2.056-3.207 2.829-6.006 3.815-1.29.455-4.974.954-6.515.954-1.54 0-5.223-.5-6.514-.954-2.799-.986-3.944-1.76-6.006-3.815-2.27-2.264-3.501-5.49-4.004-8.584-.463-2.845 1-8.584 1-8.584m13.015-5.722s-4.122 4.705-7.008 5.722c-1.878.662-4.202.827-6.006 0-1.926-.881-3.584-2.773-4.005-4.768-.478-2.27.56-4.124 2.47-5.53 2.068-1.52 4.6-1.662 6.54-3.054 2.515-1.804 2.912-5.39 5.006-7.63 1.42-1.52 5.512-3.815 5.512-3.815S31.59 5.779 33.01 7.3c2.094 2.24 2.49 5.826 5.006 7.63 1.94 1.392 4.539 1.465 6.606 2.927 1.937 1.37 2.882 3.387 2.404 5.657-.421 1.995-2.079 3.887-4.005 4.768-1.804.827-4.128.662-6.006 0-2.886-1.017-7.008-5.722-7.008-5.722"
      fill="none"
      stroke-width="1.954"
      stroke-linecap="round"
    />
    <g fill="none" stroke-width="1.932">
      <path
        d="M-30.228 8.514c-3.195.89-8.396-2.64-9.875-3.928M-29.76 5.905c-3.341-.431-6.171-2.169-7.874-3.563"
        transform="matrix(1.00108 0 0 .95376 54.213 4.558)"
      />
      <g>
        <path
          d="M-23.146 7.514c3.195.89 8.396-2.64 9.875-3.928M-23.614 4.905c3.341-.431 6.171-2.169 7.874-3.563"
          transform="matrix(1.00108 0 0 .95376 54.213 5.512)"
        />
      </g>
    </g>
    <g transform="matrix(1.00108 0 0 .95376 54.742 3.604)" fill="none" stroke-width="2">
      <ellipse ry="2.067" rx="1.885" cy="14.613" cx="-30.837" />
      <ellipse ry="2.067" rx="1.885" cy="14.699" cx="-23.593" />
    </g>
    <g fill="none" stroke-width="1">
      <path
        d="M-37.187 14.625c-14.34 2.75-4.81 15.671 4.375 5.25M-17.437 14.625c14.34 2.75 4.81 15.671-4.375 5.25"
        transform="matrix(1.00108 0 0 .95376 54.839 3.604)"
      />
    </g>
    <path
      d="M29.94 3.485c-1.385 1.314-1.986 2.379-2.46 2.379-.663 0-1.273-1.065-2.46-2.38-.973-1.076 1.101-2.379 2.46-2.379 1.358 0 3.533 1.361 2.46 2.38z"
      fill-rule="evenodd"
      stroke-width="2.164"
      class="path-fill-stroke path-fill-stroke-default"
    />
    <path
      d="M28.114 50.211s.723 3.124 5.5 3.67c4.777.546 11.785-3.779 14.788-9.501 3.003-5.723 2.403-11.491 3.003-18.122"
      fill="none"
      stroke-width="1.954"
      stroke-linecap="round"
    />
  </g>
</svg>
