<svg
  xmlns="http://www.w3.org/2000/svg"
  x="0px"
  y="0px"
  width="64"
  height="64"
  viewBox="0 0 172 172"
  style="fill: #000000"
>
  <g
    fill="none"
    fill-rule="nonzero"
    stroke="none"
    stroke-width="1"
    stroke-linecap="butt"
    stroke-linejoin="miter"
    stroke-miterlimit="10"
    stroke-dasharray=""
    stroke-dashoffset="0"
    font-family="none"
    font-weight="none"
    font-size="none"
    text-anchor="none"
    style="mix-blend-mode: normal"
  >
    <path d="M0,172v-172h172v172z" fill="none"></path>
    <g fill="" class="path-fill">
      <path
        d="M132.655,-0.3225c-13.07469,0.25531 -28.94437,8.41188 -36.335,15.8025c-9.39281,9.39281 -10.2125,22.29281 -2.365,35.69l-12.255,12.255l4.4075,4.3c2.31125,-1.935 5.29438,-3.01 8.4925,-3.01c3.56094,0 6.97406,1.29 9.3525,3.655l2.365,2.4725c3.13094,3.13094 4.47469,7.55188 3.655,11.825l2.365,2.4725c0.43,0 0.86,0.08063 1.29,0.1075l7.31,-7.31c6.15438,3.30563 12.08031,4.945 17.5225,4.945c6.70531,0 12.73875,-2.52625 17.7375,-7.525c9.245,-9.245 19.30969,-30.79875 14.62,-44.8275c-0.37625,-1.12875 -1.30344,-1.98875 -2.4725,-2.2575c-1.16906,-0.28219 -2.37844,0.12094 -3.225,0.9675l-18.275,18.1675c-1.11531,1.11531 -3.21156,1.04813 -4.4075,0l-18.275,-18.1675c-1.11531,-1.11531 -1.04812,-3.19812 0,-4.4075l18.275,-18.275c0.83313,-0.83312 1.23625,-2.06937 0.9675,-3.225c-0.26875,-1.15562 -1.14219,-2.08281 -2.2575,-2.4725c-2.58,-0.88687 -5.46906,-1.23625 -8.4925,-1.1825zM8.6,0l-8.6,8.6l14.405,25.155l9.3525,-1.3975l53.6425,53.6425l-4.085,4.085c-2.37844,2.37844 -2.37844,6.65156 0,9.03l2.365,2.365c1.69313,1.67969 4.54188,2.24406 6.7725,1.3975l2.15,-0.7525l7.525,7.525l-0.215,1.6125c-0.38969,3.655 1.04813,7.49813 3.7625,10.2125l45.15,45.2575c3.49375,3.49375 8.07594,5.375 12.9,5.375c4.82406,0 9.47344,-1.94844 13.0075,-5.4825c6.89344,-7.21594 6.94719,-18.74531 0,-25.6925l-45.2575,-45.2575c-2.56656,-2.56656 -6.24844,-3.92375 -10.2125,-3.655l-1.6125,0.1075l-7.525,-7.525l0.7525,-2.15c0.91375,-2.35156 0.37625,-4.99875 -1.3975,-6.7725l-2.365,-2.365c-2.17687,-2.17687 -6.85312,-2.17687 -9.03,0l-4.085,4.085l-53.6425,-53.6425l1.3975,-9.3525zM63.425,81.7l-20.855,20.855c-2.37844,-0.47031 -4.71656,-0.7525 -7.095,-0.7525c-19.35,0 -35.1525,15.8025 -35.1525,35.1525c0,19.35 15.8025,35.045 35.1525,35.045c19.35,0 35.045,-15.695 35.045,-35.045c0,-2.91594 -0.24187,-5.44219 -0.86,-7.74l15.3725,-15.3725c-0.04031,-0.52406 -0.12094,-1.08844 -0.1075,-1.6125l-2.2575,-2.2575c-4.20594,0.79281 -8.80156,-0.63156 -11.825,-3.655l-2.4725,-2.365c-4.81062,-4.81062 -4.97187,-12.72531 -0.645,-17.845zM109.1125,104.1675l41.28,41.28l-4.945,4.945l-41.28,-41.28zM39.56,120.4l12.04,12.04l-4.085,16.125l-16.555,4.515l-12.04,-12.04l4.515,-16.125z"
      ></path>
    </g>
  </g>
</svg>
