<svg
  xmlns="http://www.w3.org/2000/svg"
  x="0px"
  y="0px"
  width="64"
  height="64"
  viewBox="0 0 172 172"
  style="fill: #000000"
>
  <g
    fill="none"
    fill-rule="nonzero"
    stroke="none"
    stroke-width="1"
    stroke-linecap="butt"
    stroke-linejoin="miter"
    stroke-miterlimit="10"
    stroke-dasharray=""
    stroke-dashoffset="0"
    font-family="none"
    font-weight="none"
    font-size="none"
    text-anchor="none"
    style="mix-blend-mode: normal"
  >
    <path d="M0,172v-172h172v172z" fill="none"></path>
    <g fill="" class="path-fill">
      <path
        d="M97.37708,22.85495c-2.72458,0.05078 -5.03704,2.01216 -5.53177,4.69193l-22.93333,114.66667c-0.4627,2.03359 0.21528,4.15806 1.77042,5.5477c1.55514,1.38965 3.74219,1.82531 5.71114,1.13767c1.96894,-0.68764 3.40926,-2.39013 3.76115,-4.4458l22.93333,-114.66666c0.36564,-1.71062 -0.06957,-3.49458 -1.18189,-4.84463c-1.11232,-1.35005 -2.78007,-2.11851 -4.52905,-2.08688zM41.57786,45.79948c-1.89239,-0.00377 -3.66478,0.92642 -4.73672,2.48594l-24.32187,34.4c-1.4068,1.98582 -1.4068,4.64335 0,6.62917l24.32187,34.4c1.83059,2.5851 5.41022,3.19674 7.99531,1.36615c2.5851,-1.83059 3.19674,-5.41022 1.36615,-7.99531l-21.98151,-31.08542l21.98151,-31.08542c1.27224,-1.74246 1.45869,-4.05158 0.4825,-5.97559c-0.97619,-1.92401 -2.94976,-3.1372 -5.10724,-3.13951zM131.64271,45.79948c-2.12725,0.06393 -4.04409,1.3008 -4.97891,3.2127c-0.93481,1.91191 -0.7338,4.18429 0.52214,5.9024l21.98151,31.08542l-21.98151,31.08542c-1.18482,1.67224 -1.38733,3.84962 -0.53121,5.71168c0.85612,1.86206 2.64074,3.12582 4.68143,3.31508c2.04068,0.18926 4.02728,-0.72474 5.21124,-2.3976l24.32188,-34.4c1.4068,-1.98582 1.4068,-4.64335 0,-6.62917l-24.32188,-34.4c-1.10503,-1.60965 -2.95317,-2.54638 -4.90468,-2.48594z"
      ></path>
    </g>
  </g>
</svg>
