<svg
  xmlns="http://www.w3.org/2000/svg"
  x="0px"
  y="0px"
  width="64"
  height="64"
  viewBox="0 0 172 172"
  style="fill: #000000"
>
  <g
    fill="none"
    fill-rule="nonzero"
    stroke="none"
    stroke-width="1"
    stroke-linecap="butt"
    stroke-linejoin="miter"
    stroke-miterlimit="10"
    stroke-dasharray=""
    stroke-dashoffset="0"
    font-family="none"
    font-weight="none"
    font-size="none"
    text-anchor="none"
    style="mix-blend-mode: normal"
  >
    <path d="M0,172v-172h172v172z" fill="none"></path>
    <g fill="" class="path-fill">
      <path
        d="M86,17.2c-37.9948,0 -68.8,30.8052 -68.8,68.8c0,37.9948 30.8052,68.8 68.8,68.8c37.9948,0 68.8,-30.8052 68.8,-68.8c0,-37.9948 -30.8052,-68.8 -68.8,-68.8zM86,129c-4.7472,0 -8.6,-3.8528 -8.6,-8.6c0,-4.7472 3.8528,-8.6 8.6,-8.6c4.7472,0 8.6,3.8528 8.6,8.6c0,4.7472 -3.8528,8.6 -8.6,8.6zM97.85653,88.86667c-3.79547,3.50307 -6.1232,5.80213 -6.1232,8.6h-11.46667c0,-7.9636 5.44093,-12.986 9.80973,-17.028c4.58093,-4.2312 7.39027,-7.05773 7.39027,-11.63867c0,-6.32387 -5.1428,-11.46667 -11.46667,-11.46667c-6.32387,0 -11.46667,5.1428 -11.46667,11.46667h-11.46667c0,-12.64773 10.2856,-22.93333 22.93333,-22.93333c12.64773,0 22.93333,10.2856 22.93333,22.93333c0,9.83267 -6.1404,15.50293 -11.0768,20.06667z"
      ></path>
    </g>
  </g>
</svg>
