<svg xmlns="http://www.w3.org/2000/svg" xmlns:xlink="http://www.w3.org/1999/xlink" version="1.1" width="1000" height="1000" viewBox="0 0 1000 1000" xml:space="preserve">
<desc>Created with Fabric.js 3.5.0</desc>
<defs>
</defs>
<rect x="0" y="0" width="100%" height="100%" fill="#ffffff"/>
<g transform="matrix(2.7548 0 0 2.7548 509.1877 505.5113)" id="410292">
<g style="" vector-effect="non-scaling-stroke">
		<g transform="matrix(1 0 0 1 -0.001 -30.001)" id="XMLID_24_">
<path style="stroke: none; stroke-width: 1; stroke-dasharray: none; stroke-linecap: butt; stroke-dashoffset: 0; stroke-linejoin: miter; stroke-miterlimit: 4; is-custom-font: none; font-file-url: none; fill: rgb(6,82,221); fill-rule: nonzero; opacity: 1;" transform=" translate(-164.999, -134.999)" d="M 154.389 255.602 c 0.351 0.351 0.719 0.683 1.103 0.998 c 0.169 0.138 0.347 0.258 0.52 0.388 c 0.218 0.164 0.432 0.333 0.659 0.484 c 0.212 0.142 0.432 0.265 0.649 0.395 c 0.202 0.121 0.4 0.248 0.608 0.359 c 0.223 0.12 0.453 0.221 0.681 0.328 c 0.215 0.102 0.427 0.21 0.648 0.301 c 0.223 0.092 0.45 0.167 0.676 0.247 c 0.236 0.085 0.468 0.175 0.709 0.248 c 0.226 0.068 0.456 0.119 0.684 0.176 c 0.246 0.062 0.489 0.131 0.739 0.181 c 0.263 0.052 0.529 0.083 0.794 0.121 c 0.219 0.031 0.435 0.073 0.658 0.095 c 0.492 0.048 0.986 0.075 1.48 0.075 c 0.494 0 0.988 -0.026 1.479 -0.075 c 0.226 -0.022 0.444 -0.064 0.667 -0.096 c 0.262 -0.037 0.524 -0.068 0.784 -0.12 c 0.255 -0.05 0.504 -0.121 0.754 -0.184 c 0.223 -0.057 0.448 -0.105 0.669 -0.172 c 0.246 -0.075 0.483 -0.167 0.724 -0.253 c 0.221 -0.08 0.444 -0.152 0.662 -0.242 c 0.225 -0.093 0.44 -0.202 0.659 -0.306 c 0.225 -0.106 0.452 -0.206 0.672 -0.324 c 0.21 -0.112 0.408 -0.239 0.611 -0.361 c 0.217 -0.13 0.437 -0.252 0.648 -0.394 c 0.222 -0.148 0.431 -0.314 0.644 -0.473 c 0.179 -0.134 0.362 -0.258 0.536 -0.4 c 0.365 -0.3 0.714 -0.617 1.049 -0.949 c 0.016 -0.016 0.034 -0.028 0.049 -0.044 l 70.002 -69.998 c 5.858 -5.858 5.858 -15.355 0 -21.213 c -5.857 -5.857 -15.355 -5.858 -21.213 -0.001 l -44.396 44.393 V 25 c 0 -8.284 -6.716 -15 -15 -15 c -8.284 0 -15 6.716 -15 15 v 183.785 l -44.392 -44.391 c -5.857 -5.858 -15.355 -5.858 -21.213 0 c -5.858 5.858 -5.858 15.355 0 21.213 L 154.389 255.602 z" stroke-linecap="round"/>
</g>
		<g transform="matrix(1 0 0 1 0 75)" id="XMLID_25_">
<path style="stroke: none; stroke-width: 1; stroke-dasharray: none; stroke-linecap: butt; stroke-dashoffset: 0; stroke-linejoin: miter; stroke-miterlimit: 4; is-custom-font: none; font-file-url: none; fill: rgb(6,82,221); fill-rule: nonzero; opacity: 1;" transform=" translate(-165, -240)" d="M 315 160 c -8.284 0 -15 6.716 -15 15 v 115 H 30 V 175 c 0 -8.284 -6.716 -15 -15 -15 c -8.284 0 -15 6.716 -15 15 v 130 c 0 8.284 6.716 15 15 15 h 300 c 8.284 0 15 -6.716 15 -15 V 175 C 330 166.716 323.284 160 315 160 z" stroke-linecap="round"/>
</g>
</g>
</g>
</svg>