<svg
  xmlns="http://www.w3.org/2000/svg"
  x="0px"
  y="0px"
  width="30"
  height="30"
  viewBox="0 0 172 172"
  style="fill: #000000"
>
  <g
    fill="none"
    fill-rule="nonzero"
    stroke="none"
    stroke-width="1"
    stroke-linecap="butt"
    stroke-linejoin="miter"
    stroke-miterlimit="10"
    stroke-dasharray=""
    stroke-dashoffset="0"
    font-family="none"
    font-weight="none"
    font-size="none"
    text-anchor="none"
    style="mix-blend-mode: normal"
  >
    <path d="M0,172v-172h172v172z" fill="none"></path>
    <g fill="" class="path-fill">
      <path
        d="M103.14401,17.14401c-2.33303,0.00061 -4.43306,1.41473 -5.31096,3.57628c-0.8779,2.16155 -0.3586,4.6395 1.31331,6.26668l0.30234,0.30234c-11.12334,13.98572 -24.91536,41.51068 -24.91536,41.51068l-16.44974,4.10964l-2.42995,-2.42995c-1.07942,-1.10959 -2.56162,-1.73559 -4.10963,-1.73568c-2.33303,0.00061 -4.43307,1.41473 -5.31097,3.57628c-0.8779,2.16155 -0.3586,4.6395 1.31331,6.26669l45.86667,45.86667c1.43802,1.49778 3.5734,2.10113 5.5826,1.57735c2.0092,-0.52378 3.57826,-2.09284 4.10204,-4.10204c0.52378,-2.0092 -0.07957,-4.14458 -1.57735,-5.5826l-2.42995,-2.42995l4.10964,-16.44974c0,0 27.52496,-13.79203 41.51067,-24.91536l0.30235,0.30234c1.43802,1.49778 3.5734,2.10113 5.5826,1.57735c2.0092,-0.52378 3.57826,-2.09284 4.10204,-4.10204c0.52378,-2.0092 -0.07957,-4.14458 -1.57735,-5.5826l-45.86667,-45.86667c-1.07942,-1.10959 -2.56163,-1.73559 -4.10964,-1.73568zM59.01302,104.87969l-34.34401,34.34401l-0.05599,0.05599c-1.07526,1.07503 -1.67946,2.53316 -1.67969,4.05364c0,3.16643 2.5669,5.73333 5.73333,5.73333c1.52049,-0.00023 2.97861,-0.60443 4.05365,-1.67969l34.4,-34.4z"
      ></path>
    </g>
  </g>
</svg>
