<svg
  xmlns="http://www.w3.org/2000/svg"
  x="0px"
  y="0px"
  width="64"
  height="64"
  viewBox="0 0 226 226"
  style="fill: #000000"
>
  <g
    fill="none"
    fill-rule="nonzero"
    stroke="none"
    stroke-width="1"
    stroke-linecap="butt"
    stroke-linejoin="miter"
    stroke-miterlimit="10"
    stroke-dasharray=""
    stroke-dashoffset="0"
    font-family="none"
    font-weight="none"
    font-size="none"
    text-anchor="none"
    style="mix-blend-mode: normal"
  >
    <path d="M0,226v-226h226v226z" fill="none"></path>
    <g fill="" class="path-fill">
      <path
        d="M113,9.04c-23.7978,0 -45.73788,8.05464 -63.28,21.5604v-3.4804c0,-7.48964 -6.07036,-13.56 -13.56,-13.56c-7.48964,0 -13.56,6.07036 -13.56,13.56v34.64128c-8.6106,15.13296 -13.56,32.61632 -13.56,51.23872c0,57.32264 46.63284,103.96 103.96,103.96c57.32716,0 103.96,-46.63736 103.96,-103.96c0,-57.32264 -46.63284,-103.96 -103.96,-103.96zM113,207.92c-52.33708,0 -94.92,-42.5784 -94.92,-94.92c0,-2.49504 2.02044,-4.52 4.52,-4.52c2.49956,0 4.52,2.02496 4.52,4.52c0,47.35604 38.52396,85.88 85.88,85.88c47.35604,0 85.88,-38.52396 85.88,-85.88c0,-47.35604 -38.52396,-85.88 -85.88,-85.88c-26.02616,0 -50.29856,11.70228 -66.54344,31.64h25.86344c2.49956,0 4.52,2.02496 4.52,4.52c0,2.49504 -2.02044,4.52 -4.52,4.52h-40.68v-40.68c0,-2.49504 2.02044,-4.52 4.52,-4.52c2.49956,0 4.52,2.02496 4.52,4.52v24.39896c17.93536,-21.11744 44.21464,-33.43896 72.32,-33.43896c52.33708,0 94.92,42.5784 94.92,94.92c0,52.3416 -42.58292,94.92 -94.92,94.92z"
      ></path>
    </g>
  </g>
</svg>
